<svg xmlns="http://www.w3.org/2000/svg" width="360" height="720" viewBox="0 0 360 720"><rect width="360" height="720" fill="#fff"/><rect width="360" height="92" fill="#1f2933"/><text x="28" y="55" fill="#fff" font-family="Arial" font-size="20" font-weight="700">Asistencia</text><text x="28" y="80" fill="#a7b9b6" font-family="Arial" font-size="12">Matemática · 2° B</text><text x="28" y="130" fill="#607078" font-family="Arial" font-size="12" font-weight="700">MARTES, 12 DE MARZO</text><text x="28" y="165" fill="#1f2933" font-family="Arial" font-size="22" font-weight="700">32 estudiantes</text><rect x="28" y="189" width="304" height="42" rx="6" fill="#e8f8f4"/><text x="46" y="215" fill="#16816c" font-family="Arial" font-size="13" font-weight="700">31 presentes</text><text x="250" y="215" fill="#6b797f" font-family="Arial" font-size="12">1 ausente</text><g font-family="Arial"><g transform="translate(28 260)"><circle cx="19" cy="19" r="19" fill="#e6f5f2"/><text x="13" y="24" fill="#16816c" font-size="13" font-weight="700">LM</text><text x="52" y="16" fill="#1f2933" font-size="15" font-weight="700">Lucía Martínez</text><text x="52" y="36" fill="#76858a" font-size="11">Presente</text><circle cx="286" cy="20" r="12" fill="#2dbf9e"/><path d="M280 20l4 4 8-9" fill="none" stroke="#fff" stroke-width="2"/></g><path d="M28 310h304" stroke="#e5e9e9"/><g transform="translate(28 330)"><circle cx="19" cy="19" r="19" fill="#f1edfb"/><text x="13" y="24" fill="#765fb2" font-size="13" font-weight="700">JP</text><text x="52" y="16" fill="#1f2933" font-size="15" font-weight="700">Juan Pérez</text><text x="52" y="36" fill="#76858a" font-size="11">Presente</text><circle cx="286" cy="20" r="12" fill="#2dbf9e"/><path d="M280 20l4 4 8-9" fill="none" stroke="#fff" stroke-width="2"/></g><path d="M28 380h304" stroke="#e5e9e9"/><g transform="translate(28 400)"><circle cx="19" cy="19" r="19" fill="#fff0e5"/><text x="13" y="24" fill="#bb6b37" font-size="13" font-weight="700">AS</text><text x="52" y="16" fill="#1f2933" font-size="15" font-weight="700">Ana Sánchez</text><text x="52" y="36" fill="#76858a" font-size="11">Ausente</text><circle cx="286" cy="20" r="12" fill="#fff" stroke="#d8dfdf" stroke-width="2"/></g></g><rect y="650" width="360" height="70" fill="#fff"/><path d="M50 678h22v18H50zM169 678h22v18h-22zM288 678h22v18h-22z" fill="#2dbf9e"/><text x="41" y="716" fill="#637178" font-family="Arial" font-size="10">Cursos</text><text x="155" y="716" fill="#637178" font-family="Arial" font-size="10">Agenda</text><text x="273" y="716" fill="#637178" font-family="Arial" font-size="10">Perfil</text></svg>
