<svg xmlns="http://www.w3.org/2000/svg" width="1100" height="740" viewBox="0 0 1100 740"><rect width="1100" height="740" rx="16" fill="#fff"/><rect width="190" height="740" rx="16" fill="#1f2933"/><path d="M42 73V45a15 15 0 1 1 25 13L42 73Z" fill="none" stroke="#42c8aa" stroke-width="4"/><text x="40" y="111" fill="#fff" font-family="Arial,sans-serif" font-size="19" font-weight="700">Profe<tspan fill="#42c8aa">OS</tspan></text><rect x="21" y="162" width="148" height="38" rx="5" fill="#2e5c55"/><g fill="#b8c6c4" font-family="Arial,sans-serif" font-size="12"><text x="52" y="186" fill="#fff">Resumen</text><text x="52" y="235">Mis cursos</text><text x="52" y="280">Calendario</text><text x="52" y="325">Estudiantes</text><text x="52" y="370">Ajustes</text></g><g fill="#42c8aa"><circle cx="39" cy="181" r="4"/><circle cx="39" cy="230" r="4"/><circle cx="39" cy="275" r="4"/><circle cx="39" cy="320" r="4"/><circle cx="39" cy="365" r="4"/></g><circle cx="49" cy="680" r="17" fill="#42c8aa"/><text x="77" y="677" fill="#fff" font-family="Arial,sans-serif" font-size="12">Mariana Torres</text><text x="77" y="695" fill="#91a2a0" font-family="Arial,sans-serif" font-size="10">Docente</text><rect x="190" width="910" height="74" fill="#fbfcfc"/><text x="232" y="46" fill="#1f2933" font-family="Arial,sans-serif" font-size="18" font-weight="700">Buen día, Mariana</text><text x="232" y="67" fill="#7a878d" font-family="Arial,sans-serif" font-size="11">Martes, 12 de marzo</text><circle cx="1048" cy="37" r="14" fill="#eaf8f5"/><path d="M1048 29v16m-8-8h16" stroke="#22ae91" stroke-width="2"/><text x="232" y="123" fill="#7a878d" font-family="Arial,sans-serif" font-size="12">HOY</text><text x="232" y="159" fill="#1f2933" font-family="Arial,sans-serif" font-size="25" font-weight="700">Tu jornada</text><rect x="232" y="187" width="535" height="165" rx="8" fill="#e9f8f5"/><text x="258" y="222" fill="#177d69" font-family="Arial,sans-serif" font-size="11" font-weight="700">PRÓXIMA CLASE · 08:15</text><text x="258" y="259" fill="#1f2933" font-family="Arial,sans-serif" font-size="21" font-weight="700">Matemática · 2° B</text><text x="258" y="284" fill="#58706b" font-family="Arial,sans-serif" font-size="13">32 estudiantes · Aula 14</text><rect x="258" y="305" width="128" height="27" rx="4" fill="#2dbf9e"/><text x="274" y="323" fill="#123c35" font-family="Arial,sans-serif" font-size="11" font-weight="700">Tomar asistencia</text><rect x="793" y="187" width="265" height="165" rx="8" fill="#1f2933"/><text x="819" y="222" fill="#8ddfcd" font-family="Arial,sans-serif" font-size="11" font-weight="700">ESTA SEMANA</text><text x="819" y="270" fill="#fff" font-family="Arial,sans-serif" font-size="35" font-weight="700">18</text><text x="819" y="293" fill="#b7c5c3" font-family="Arial,sans-serif" font-size="12">clases planificadas</text><path d="M975 290c8-28 14-22 21-47 9 22 16 6 29 25" fill="none" stroke="#42c8aa" stroke-width="3"/><text x="232" y="414" fill="#1f2933" font-family="Arial,sans-serif" font-size="19" font-weight="700">Cursos</text><g><rect x="232" y="438" width="256" height="182" rx="7" fill="#fff" stroke="#e2e7e6"/><rect x="254" y="460" width="37" height="37" rx="5" fill="#e5f7f3"/><text x="265" y="484" fill="#15836d" font-family="Arial,sans-serif" font-size="17" font-weight="700">M</text><text x="254" y="535" fill="#1f2933" font-family="Arial,sans-serif" font-size="16" font-weight="700">Matemática · 2° B</text><text x="254" y="558" fill="#7a878d" font-family="Arial,sans-serif" font-size="12">32 estudiantes</text><rect x="254" y="583" width="188" height="5" rx="2" fill="#e6eceb"/><rect x="254" y="583" width="136" height="5" rx="2" fill="#2dbf9e"/></g><g><rect x="512" y="438" width="256" height="182" rx="7" fill="#fff" stroke="#e2e7e6"/><rect x="534" y="460" width="37" height="37" rx="5" fill="#f1eefa"/><text x="548" y="484" fill="#7464b4" font-family="Arial,sans-serif" font-size="17" font-weight="700">H</text><text x="534" y="535" fill="#1f2933" font-family="Arial,sans-serif" font-size="16" font-weight="700">Historia · 3° A</text><text x="534" y="558" fill="#7a878d" font-family="Arial,sans-serif" font-size="12">29 estudiantes</text><rect x="534" y="583" width="188" height="5" rx="2" fill="#e6eceb"/><rect x="534" y="583" width="100" height="5" rx="2" fill="#a292de"/></g><g><rect x="792" y="438" width="266" height="182" rx="7" fill="#fff" stroke="#e2e7e6"/><text x="816" y="477" fill="#7a878d" font-family="Arial,sans-serif" font-size="11" font-weight="700">PENDIENTES</text><text x="816" y="520" fill="#1f2933" font-family="Arial,sans-serif" font-size="16" font-weight="700">3 tareas para revisar</text><path d="M816 547h192" stroke="#e5eaea"/><circle cx="826" cy="578" r="5" fill="#2dbf9e"/><text x="842" y="582" fill="#68767c" font-family="Arial,sans-serif" font-size="12">2° B · Ejercicios</text></g></svg>
