<svg xmlns="http://www.w3.org/2000/svg" width="360" height="720" viewBox="0 0 360 720"><rect width="360" height="720" fill="#f7faf9"/><text x="26" y="66" fill="#1f2933" font-family="Arial" font-size="22" font-weight="700">Calendario</text><text x="26" y="91" fill="#6d7b80" font-family="Arial" font-size="13">Marzo 2026</text><rect x="24" y="125" width="312" height="250" rx="9" fill="#fff"/><g fill="#829095" font-family="Arial" font-size="10" text-anchor="middle"><text x="50" y="156">L</text><text x="94" y="156">M</text><text x="138" y="156">M</text><text x="182" y="156">J</text><text x="226" y="156">V</text><text x="270" y="156">S</text><text x="314" y="156">D</text></g><g fill="#354149" font-family="Arial" font-size="12" text-anchor="middle"><text x="50" y="193">2</text><text x="94" y="193">3</text><text x="138" y="193">4</text><text x="182" y="193">5</text><text x="226" y="193">6</text><text x="270" y="193">7</text><text x="314" y="193">8</text><text x="50" y="239">9</text><text x="94" y="239">10</text><text x="138" y="239">11</text><text x="182" y="239" fill="#fff">12</text><text x="226" y="239">13</text><text x="270" y="239">14</text><text x="314" y="239">15</text></g><circle cx="182" cy="234" r="17" fill="#2dbf9e"/><rect x="42" y="270" width="98" height="5" rx="3" fill="#2dbf9e"/><rect x="174" y="270" width="96" height="5" rx="3" fill="#b7e8dc"/><text x="26" y="430" fill="#1f2933" font-family="Arial" font-size="17" font-weight="700">Próximas clases</text><g font-family="Arial"><rect x="24" y="455" width="312" height="77" rx="8" fill="#fff"/><rect x="24" y="455" width="5" height="77" rx="2" fill="#2dbf9e"/><text x="48" y="483" fill="#6d7b80" font-size="11">08:15</text><text x="48" y="509" fill="#1f2933" font-size="15" font-weight="700">Matemática · 2° B</text><rect x="24" y="548" width="312" height="77" rx="8" fill="#fff"/><rect x="24" y="548" width="5" height="77" rx="2" fill="#9b8ad2"/><text x="48" y="576" fill="#6d7b80" font-size="11">10:00</text><text x="48" y="602" fill="#1f2933" font-size="15" font-weight="700">Historia · 3° A</text></g></svg>
